<svg viewBox="0 0 32 32" fill="none" stroke="currentColor" stroke-width="2.2"
     stroke-linecap="round" stroke-linejoin="round" aria-hidden="true">
  <path d="M4.3 7.9c7.7-1.1 15.6-1.2 23.4-.3M28 6.2c1 6.1.9 12.4-.2 18.6M27.1 26.1c-7.6 1.1-15.4 1-23-.1M4.3 26.8c-1.1-6.2-1-12.6.1-18.8"/>
  <path d="M11.4 24.5c-.4-4.4 1.1-8.9 4.6-9.1 3.6-.2 5.5 4.3 5.3 9" stroke="var(--violet)" stroke-width="2.4" stroke-dasharray="3.4 2.6"/>
  <path d="M16.1 8.4c2.1.1 3.5 1.7 3.3 3.7-.2 1.8-1.9 3-3.7 2.8-1.7-.2-3-1.9-2.7-3.7.3-1.6 1.6-2.8 3.1-2.8z" stroke="var(--violet)" stroke-width="2.2"/>
  <path d="M24.4 10.6l.9 2 2 .8-2 .9-.9 2-.9-2-2-.9 2-.8z" stroke="var(--violet)" stroke-width="1.5"/>
</svg>
