<svg viewBox="0 0 32 32" fill="none" stroke="currentColor" stroke-width="2.2"
     stroke-linecap="round" stroke-linejoin="round" aria-hidden="true">
  <path d="M4.4 6.9c7.7-1 15.6-1.1 23.3-.2M27.9 5.4c1 7 .9 14.2-.2 21.2M27.1 27.9c-7.6 1-15.4.9-23-.1M4.4 28.6c-1.1-7.1-1-14.4 0-21.6"/>
  <path d="M4.6 12.4c7.6-.9 15.4-1 23.1-.1M4.4 21.4c7.7-.9 15.6-1 23.3-.1" opacity=".5"/>
  <path d="M7.4 8.4c.9-.2 1.9-.2 2.8 0M13.4 8.2c.9-.2 1.9-.2 2.8 0M19.4 8.4c.9-.2 1.9-.2 2.8 0M7.4 25.4c.9-.2 1.9-.2 2.8 0M13.4 25.2c.9-.2 1.9-.2 2.8 0M19.4 25.4c.9-.2 1.9-.2 2.8 0" opacity=".42" stroke-width="1.6"/>
  <path d="M9.9 18.9c2.9-3.4 6.1-3.5 9.1-.2 2 2.2 4 2.3 6.1.1" stroke="var(--accent)" stroke-width="2.4"/>
</svg>
