<svg viewBox="0 0 32 32" fill="none" stroke="currentColor" stroke-width="2.2"
     stroke-linecap="round" stroke-linejoin="round" aria-hidden="true">
  <path d="M9.6 27.3c3.9.9 8.7.8 12.6-.1" opacity=".38" stroke-width="1.3"/>
  <path d="M16.1 26.1c-.2 0-7.5-7.9-7.4-12.6.1-4 3.3-7.2 7.3-7.2s7.3 3.3 7.2 7.3c-.1 4.7-6.9 12.4-7.1 12.5z"/>
  <path d="M8.9 9.7c1.8-3.1 5.3-5 8.8-4.6" opacity=".5" stroke-width="1.5"/>
  <path d="M16.2 10.1c2 .1 3.4 1.8 3.2 3.8-.2 1.9-2 3.2-3.9 2.9-1.8-.3-3.1-2.1-2.7-4 .3-1.6 1.7-2.7 3.4-2.7z" stroke="var(--accent)" stroke-width="2.4"/>
</svg>
